%TF.GenerationSoftware,KiCad,Pcbnew,7.0.10-7.0.10~ubuntu22.04.1*%
%TF.CreationDate,2025-06-15T10:20:51+07:00*%
%TF.ProjectId,servermon,73657276-6572-46d6-9f6e-2e6b69636164,rev?*%
%TF.SameCoordinates,Original*%
%TF.FileFunction,Soldermask,Top*%
%TF.FilePolarity,Negative*%
%FSLAX46Y46*%
G04 Gerber Fmt 4.6, Leading zero omitted, Abs format (unit mm)*
G04 Created by KiCad (PCBNEW 7.0.10-7.0.10~ubuntu22.04.1) date 2025-06-15 10:20:51*
%MOMM*%
%LPD*%
G01*
G04 APERTURE LIST*
G04 Aperture macros list*
%AMRoundRect*
0 Rectangle with rounded corners*
0 $1 Rounding radius*
0 $2 $3 $4 $5 $6 $7 $8 $9 X,Y pos of 4 corners*
0 Add a 4 corners polygon primitive as box body*
4,1,4,$2,$3,$4,$5,$6,$7,$8,$9,$2,$3,0*
0 Add four circle primitives for the rounded corners*
1,1,$1+$1,$2,$3*
1,1,$1+$1,$4,$5*
1,1,$1+$1,$6,$7*
1,1,$1+$1,$8,$9*
0 Add four rect primitives between the rounded corners*
20,1,$1+$1,$2,$3,$4,$5,0*
20,1,$1+$1,$4,$5,$6,$7,0*
20,1,$1+$1,$6,$7,$8,$9,0*
20,1,$1+$1,$8,$9,$2,$3,0*%
G04 Aperture macros list end*
%ADD10RoundRect,0.218750X0.218750X0.256250X-0.218750X0.256250X-0.218750X-0.256250X0.218750X-0.256250X0*%
%ADD11RoundRect,0.218750X-0.218750X-0.256250X0.218750X-0.256250X0.218750X0.256250X-0.218750X0.256250X0*%
%ADD12RoundRect,0.135000X0.135000X0.185000X-0.135000X0.185000X-0.135000X-0.185000X0.135000X-0.185000X0*%
%ADD13R,2.000000X1.100000*%
%ADD14C,3.200000*%
%ADD15RoundRect,0.225000X0.250000X-0.225000X0.250000X0.225000X-0.250000X0.225000X-0.250000X-0.225000X0*%
%ADD16RoundRect,0.250000X-0.750000X0.600000X-0.750000X-0.600000X0.750000X-0.600000X0.750000X0.600000X0*%
%ADD17O,2.000000X1.700000*%
G04 APERTURE END LIST*
D10*
%TO.C,D9*%
X87274600Y-74523600D03*
X85699600Y-74523600D03*
%TD*%
D11*
%TO.C,D11*%
X172050000Y-74726800D03*
X173625000Y-74726800D03*
%TD*%
%TO.C,D10*%
X128945100Y-74625200D03*
X130520100Y-74625200D03*
%TD*%
D12*
%TO.C,R2*%
X128830800Y-137007600D03*
X127810800Y-137007600D03*
%TD*%
%TO.C,R1*%
X128830800Y-135432800D03*
X127810800Y-135432800D03*
%TD*%
D13*
%TO.C,D1*%
X86169200Y-80521600D03*
X86169200Y-82221600D03*
X86169200Y-83921600D03*
X90969200Y-83921600D03*
X90969200Y-82221600D03*
X90969200Y-80521600D03*
%TD*%
%TO.C,D7*%
X173431200Y-144068800D03*
X173431200Y-142368800D03*
X173431200Y-140668800D03*
X168631200Y-140668800D03*
X168631200Y-142368800D03*
X168631200Y-144068800D03*
%TD*%
D14*
%TO.C,H1*%
X174244000Y-65989200D03*
%TD*%
D13*
%TO.C,D5*%
X173252800Y-83792800D03*
X173252800Y-82092800D03*
X173252800Y-80392800D03*
X168452800Y-80392800D03*
X168452800Y-82092800D03*
X168452800Y-83792800D03*
%TD*%
D14*
%TO.C,H2*%
X85344000Y-154178000D03*
%TD*%
%TO.C,H3*%
X173329600Y-155194000D03*
%TD*%
D13*
%TO.C,D4*%
X86118400Y-140567200D03*
X86118400Y-142267200D03*
X86118400Y-143967200D03*
X90918400Y-143967200D03*
X90918400Y-142267200D03*
X90918400Y-140567200D03*
%TD*%
%TO.C,D3*%
X86118400Y-120602800D03*
X86118400Y-122302800D03*
X86118400Y-124002800D03*
X90918400Y-124002800D03*
X90918400Y-122302800D03*
X90918400Y-120602800D03*
%TD*%
%TO.C,D6*%
X173278800Y-103679200D03*
X173278800Y-101979200D03*
X173278800Y-100279200D03*
X168478800Y-100279200D03*
X168478800Y-101979200D03*
X168478800Y-103679200D03*
%TD*%
%TO.C,D8*%
X173303600Y-123924800D03*
X173303600Y-122224800D03*
X173303600Y-120524800D03*
X168503600Y-120524800D03*
X168503600Y-122224800D03*
X168503600Y-123924800D03*
%TD*%
%TO.C,D2*%
X86106000Y-100662000D03*
X86106000Y-102362000D03*
X86106000Y-104062000D03*
X90906000Y-104062000D03*
X90906000Y-102362000D03*
X90906000Y-100662000D03*
%TD*%
D15*
%TO.C,C1*%
X130302000Y-136093200D03*
X130302000Y-134543200D03*
%TD*%
D14*
%TO.C,H4*%
X85344000Y-65989200D03*
%TD*%
D16*
%TO.C,J1*%
X82854800Y-111241200D03*
D17*
X82854800Y-113741200D03*
%TD*%
M02*
