%TF.GenerationSoftware,KiCad,Pcbnew,7.0.10-7.0.10~ubuntu22.04.1*%
%TF.CreationDate,2025-06-15T10:20:50+07:00*%
%TF.ProjectId,servermon,73657276-6572-46d6-9f6e-2e6b69636164,rev?*%
%TF.SameCoordinates,Original*%
%TF.FileFunction,Copper,L1,Top*%
%TF.FilePolarity,Positive*%
%FSLAX46Y46*%
G04 Gerber Fmt 4.6, Leading zero omitted, Abs format (unit mm)*
G04 Created by KiCad (PCBNEW 7.0.10-7.0.10~ubuntu22.04.1) date 2025-06-15 10:20:50*
%MOMM*%
%LPD*%
G01*
G04 APERTURE LIST*
G04 Aperture macros list*
%AMRoundRect*
0 Rectangle with rounded corners*
0 $1 Rounding radius*
0 $2 $3 $4 $5 $6 $7 $8 $9 X,Y pos of 4 corners*
0 Add a 4 corners polygon primitive as box body*
4,1,4,$2,$3,$4,$5,$6,$7,$8,$9,$2,$3,0*
0 Add four circle primitives for the rounded corners*
1,1,$1+$1,$2,$3*
1,1,$1+$1,$4,$5*
1,1,$1+$1,$6,$7*
1,1,$1+$1,$8,$9*
0 Add four rect primitives between the rounded corners*
20,1,$1+$1,$2,$3,$4,$5,0*
20,1,$1+$1,$4,$5,$6,$7,0*
20,1,$1+$1,$6,$7,$8,$9,0*
20,1,$1+$1,$8,$9,$2,$3,0*%
G04 Aperture macros list end*
%TA.AperFunction,SMDPad,CuDef*%
%ADD10RoundRect,0.218750X0.218750X0.256250X-0.218750X0.256250X-0.218750X-0.256250X0.218750X-0.256250X0*%
%TD*%
%TA.AperFunction,SMDPad,CuDef*%
%ADD11RoundRect,0.218750X-0.218750X-0.256250X0.218750X-0.256250X0.218750X0.256250X-0.218750X0.256250X0*%
%TD*%
%TA.AperFunction,SMDPad,CuDef*%
%ADD12RoundRect,0.135000X0.135000X0.185000X-0.135000X0.185000X-0.135000X-0.185000X0.135000X-0.185000X0*%
%TD*%
%TA.AperFunction,SMDPad,CuDef*%
%ADD13R,2.000000X1.100000*%
%TD*%
%TA.AperFunction,SMDPad,CuDef*%
%ADD14RoundRect,0.225000X0.250000X-0.225000X0.250000X0.225000X-0.250000X0.225000X-0.250000X-0.225000X0*%
%TD*%
%TA.AperFunction,ComponentPad*%
%ADD15RoundRect,0.250000X-0.750000X0.600000X-0.750000X-0.600000X0.750000X-0.600000X0.750000X0.600000X0*%
%TD*%
%TA.AperFunction,ComponentPad*%
%ADD16O,2.000000X1.700000*%
%TD*%
%TA.AperFunction,ViaPad*%
%ADD17C,0.800000*%
%TD*%
%TA.AperFunction,Conductor*%
%ADD18C,0.250000*%
%TD*%
%TA.AperFunction,Conductor*%
%ADD19C,0.500000*%
%TD*%
G04 APERTURE END LIST*
D10*
%TO.P,D9,1,K*%
%TO.N,Net-(D10-K)*%
X87274600Y-74523600D03*
%TO.P,D9,2,A*%
%TO.N,Net-(D9-A)*%
X85699600Y-74523600D03*
%TD*%
D11*
%TO.P,D11,1,K*%
%TO.N,Net-(D10-K)*%
X172050000Y-74726800D03*
%TO.P,D11,2,A*%
%TO.N,Net-(D11-A)*%
X173625000Y-74726800D03*
%TD*%
%TO.P,D10,1,K*%
%TO.N,Net-(D10-K)*%
X128945100Y-74625200D03*
%TO.P,D10,2,A*%
%TO.N,Net-(D10-A)*%
X130520100Y-74625200D03*
%TD*%
D12*
%TO.P,R2,1*%
%TO.N,Net-(J1-Pin_2)*%
X128830800Y-137007600D03*
%TO.P,R2,2*%
%TO.N,Net-(U1-SCLK)*%
X127810800Y-137007600D03*
%TD*%
%TO.P,R1,1*%
%TO.N,Net-(J1-Pin_2)*%
X128830800Y-135432800D03*
%TO.P,R1,2*%
%TO.N,Net-(U1-DIN)*%
X127810800Y-135432800D03*
%TD*%
D13*
%TO.P,D1,1,RK*%
%TO.N,Net-(D1-BK)*%
X86169200Y-80521600D03*
%TO.P,D1,2,GK*%
X86169200Y-82221600D03*
%TO.P,D1,3,BK*%
X86169200Y-83921600D03*
%TO.P,D1,4,BA*%
%TO.N,Net-(D1-BA)*%
X90969200Y-83921600D03*
%TO.P,D1,5,GA*%
%TO.N,Net-(D1-GA)*%
X90969200Y-82221600D03*
%TO.P,D1,6,RA*%
%TO.N,Net-(D1-RA)*%
X90969200Y-80521600D03*
%TD*%
%TO.P,D7,1,RK*%
%TO.N,Net-(D7-BK)*%
X173431200Y-144068800D03*
%TO.P,D7,2,GK*%
X173431200Y-142368800D03*
%TO.P,D7,3,BK*%
X173431200Y-140668800D03*
%TO.P,D7,4,BA*%
%TO.N,Net-(D1-BA)*%
X168631200Y-140668800D03*
%TO.P,D7,5,GA*%
%TO.N,Net-(D1-GA)*%
X168631200Y-142368800D03*
%TO.P,D7,6,RA*%
%TO.N,Net-(D1-RA)*%
X168631200Y-144068800D03*
%TD*%
%TO.P,D5,1,RK*%
%TO.N,Net-(D5-BK)*%
X173252800Y-83792800D03*
%TO.P,D5,2,GK*%
X173252800Y-82092800D03*
%TO.P,D5,3,BK*%
X173252800Y-80392800D03*
%TO.P,D5,4,BA*%
%TO.N,Net-(D1-BA)*%
X168452800Y-80392800D03*
%TO.P,D5,5,GA*%
%TO.N,Net-(D1-GA)*%
X168452800Y-82092800D03*
%TO.P,D5,6,RA*%
%TO.N,Net-(D1-RA)*%
X168452800Y-83792800D03*
%TD*%
%TO.P,D4,1,RK*%
%TO.N,Net-(D3-BK)*%
X86118400Y-140567200D03*
%TO.P,D4,2,GK*%
X86118400Y-142267200D03*
%TO.P,D4,3,BK*%
X86118400Y-143967200D03*
%TO.P,D4,4,BA*%
%TO.N,Net-(D2-BA)*%
X90918400Y-143967200D03*
%TO.P,D4,5,GA*%
%TO.N,Net-(D2-GA)*%
X90918400Y-142267200D03*
%TO.P,D4,6,RA*%
%TO.N,Net-(D2-RA)*%
X90918400Y-140567200D03*
%TD*%
%TO.P,D3,1,RK*%
%TO.N,Net-(D3-BK)*%
X86118400Y-120602800D03*
%TO.P,D3,2,GK*%
X86118400Y-122302800D03*
%TO.P,D3,3,BK*%
X86118400Y-124002800D03*
%TO.P,D3,4,BA*%
%TO.N,Net-(D1-BA)*%
X90918400Y-124002800D03*
%TO.P,D3,5,GA*%
%TO.N,Net-(D1-GA)*%
X90918400Y-122302800D03*
%TO.P,D3,6,RA*%
%TO.N,Net-(D1-RA)*%
X90918400Y-120602800D03*
%TD*%
%TO.P,D6,1,RK*%
%TO.N,Net-(D5-BK)*%
X173278800Y-103679200D03*
%TO.P,D6,2,GK*%
X173278800Y-101979200D03*
%TO.P,D6,3,BK*%
X173278800Y-100279200D03*
%TO.P,D6,4,BA*%
%TO.N,Net-(D2-BA)*%
X168478800Y-100279200D03*
%TO.P,D6,5,GA*%
%TO.N,Net-(D2-GA)*%
X168478800Y-101979200D03*
%TO.P,D6,6,RA*%
%TO.N,Net-(D2-RA)*%
X168478800Y-103679200D03*
%TD*%
%TO.P,D8,1,RK*%
%TO.N,Net-(D7-BK)*%
X173303600Y-123924800D03*
%TO.P,D8,2,GK*%
X173303600Y-122224800D03*
%TO.P,D8,3,BK*%
X173303600Y-120524800D03*
%TO.P,D8,4,BA*%
%TO.N,Net-(D2-BA)*%
X168503600Y-120524800D03*
%TO.P,D8,5,GA*%
%TO.N,Net-(D2-GA)*%
X168503600Y-122224800D03*
%TO.P,D8,6,RA*%
%TO.N,Net-(D2-RA)*%
X168503600Y-123924800D03*
%TD*%
%TO.P,D2,1,RK*%
%TO.N,Net-(D1-BK)*%
X86106000Y-100662000D03*
%TO.P,D2,2,GK*%
X86106000Y-102362000D03*
%TO.P,D2,3,BK*%
X86106000Y-104062000D03*
%TO.P,D2,4,BA*%
%TO.N,Net-(D2-BA)*%
X90906000Y-104062000D03*
%TO.P,D2,5,GA*%
%TO.N,Net-(D2-GA)*%
X90906000Y-102362000D03*
%TO.P,D2,6,RA*%
%TO.N,Net-(D2-RA)*%
X90906000Y-100662000D03*
%TD*%
D14*
%TO.P,C1,1*%
%TO.N,Net-(J1-Pin_2)*%
X130302000Y-136093200D03*
%TO.P,C1,2*%
%TO.N,Net-(D10-K)*%
X130302000Y-134543200D03*
%TD*%
D15*
%TO.P,J1,1,Pin_1*%
%TO.N,Net-(D10-K)*%
X82854800Y-111241200D03*
D16*
%TO.P,J1,2,Pin_2*%
%TO.N,Net-(J1-Pin_2)*%
X82854800Y-113741200D03*
%TD*%
D17*
%TO.N,Net-(D10-K)*%
X131927600Y-134569200D03*
X90678000Y-110439200D03*
X127812800Y-74523600D03*
X125374400Y-132943600D03*
X170637200Y-74726800D03*
X88290400Y-74523600D03*
%TO.N,Net-(D1-BK)*%
X119075200Y-136601200D03*
X88290400Y-82296000D03*
X88290400Y-102362000D03*
X115570000Y-132232400D03*
%TO.N,Net-(D1-BA)*%
X155397200Y-89103200D03*
X129133600Y-126288800D03*
X129133600Y-124409200D03*
X164084000Y-80416400D03*
%TO.N,Net-(D1-GA)*%
X159334200Y-87249000D03*
X130403600Y-122224800D03*
X164490400Y-82092800D03*
X130403600Y-128117600D03*
%TO.N,Net-(D1-RA)*%
X162636200Y-85725000D03*
X131673600Y-129082800D03*
X164642800Y-83718400D03*
X131673600Y-119684800D03*
%TO.N,Net-(D2-BA)*%
X132943600Y-119227600D03*
X132994400Y-132588000D03*
X143713200Y-106527600D03*
X165963600Y-100279200D03*
%TO.N,Net-(D2-GA)*%
X134213600Y-121970800D03*
X166014400Y-101904800D03*
X134213600Y-124815600D03*
X147447000Y-104470200D03*
%TO.N,Net-(D2-RA)*%
X98145600Y-140512800D03*
X94030800Y-140563600D03*
X135483600Y-127304800D03*
X135483600Y-124307600D03*
X150012400Y-103581200D03*
X165963600Y-103581200D03*
%TO.N,Net-(D3-BK)*%
X131673600Y-142849600D03*
X88341200Y-142138400D03*
X88290400Y-122275600D03*
%TO.N,Net-(D5-BK)*%
X170738800Y-101041200D03*
X170738800Y-82143600D03*
%TO.N,Net-(D7-BK)*%
X133451600Y-143865600D03*
X129032000Y-143916400D03*
X170992800Y-141986000D03*
X175310800Y-122224800D03*
%TO.N,Net-(U1-DIN)*%
X126136400Y-134874000D03*
%TO.N,Net-(U1-SCLK)*%
X126593600Y-136906000D03*
%TO.N,Net-(D9-A)*%
X84582000Y-74574400D03*
%TO.N,Net-(D10-A)*%
X131521200Y-74625200D03*
%TO.N,Net-(D11-A)*%
X174650400Y-74726800D03*
%TO.N,Net-(U2-SCL{slash}D1)*%
X101447600Y-119380000D03*
X105308400Y-116484400D03*
%TO.N,Net-(U2-SDA{slash}D2)*%
X102666800Y-117500400D03*
X100025200Y-118719600D03*
%TO.N,Net-(J1-Pin_2)*%
X109728000Y-138785600D03*
X132943600Y-138582400D03*
X105257600Y-137160000D03*
X89103200Y-113639600D03*
X129032000Y-139293600D03*
%TD*%
D18*
%TO.N,Net-(D11-A)*%
X174650400Y-74726800D02*
X173625000Y-74726800D01*
%TO.N,Net-(D10-K)*%
X170637200Y-74726800D02*
X172050000Y-74726800D01*
X87274600Y-74523600D02*
X88290400Y-74523600D01*
%TO.N,Net-(D9-A)*%
X84582000Y-74574400D02*
X85648800Y-74574400D01*
X85648800Y-74574400D02*
X85699600Y-74523600D01*
%TO.N,Net-(D10-K)*%
X127812800Y-74523600D02*
X128843500Y-74523600D01*
X128843500Y-74523600D02*
X128945100Y-74625200D01*
%TO.N,Net-(D10-A)*%
X131521200Y-74625200D02*
X130520100Y-74625200D01*
%TO.N,Net-(J1-Pin_2)*%
X129408600Y-136093200D02*
X128830800Y-136671000D01*
X128830800Y-136671000D02*
X128830800Y-137007600D01*
X129408600Y-136093200D02*
X129408600Y-136010600D01*
X129408600Y-136010600D02*
X128830800Y-135432800D01*
%TO.N,Net-(U1-SCLK)*%
X127810800Y-137007600D02*
X126695200Y-137007600D01*
X126695200Y-137007600D02*
X126593600Y-136906000D01*
%TO.N,Net-(U1-DIN)*%
X127810800Y-135432800D02*
X126695200Y-135432800D01*
X126695200Y-135432800D02*
X126136400Y-134874000D01*
%TO.N,Net-(D10-K)*%
X130302000Y-134543200D02*
X126974000Y-134543200D01*
X126974000Y-134543200D02*
X125374400Y-132943600D01*
X130328000Y-134569200D02*
X130302000Y-134543200D01*
X82854800Y-111241200D02*
X89876000Y-111241200D01*
X89876000Y-111241200D02*
X90678000Y-110439200D01*
X131927600Y-134569200D02*
X130328000Y-134569200D01*
D19*
%TO.N,Net-(D1-BK)*%
X86106000Y-104062000D02*
X86106000Y-102362000D01*
X86169200Y-82221600D02*
X86169200Y-80521600D01*
D18*
X119075200Y-135737600D02*
X115570000Y-132232400D01*
D19*
X86106000Y-102362000D02*
X88290400Y-102362000D01*
D18*
X119075200Y-136601200D02*
X119075200Y-135737600D01*
D19*
X86169200Y-83921600D02*
X86169200Y-82221600D01*
X86106000Y-102362000D02*
X86106000Y-100662000D01*
X88290400Y-82296000D02*
X86243600Y-82296000D01*
X86243600Y-82296000D02*
X86169200Y-82221600D01*
%TO.N,Net-(D1-BA)*%
X90969200Y-83921600D02*
X95146600Y-88099000D01*
X90918400Y-124002800D02*
X128727200Y-124002800D01*
X154393000Y-88099000D02*
X155397200Y-89103200D01*
X168452800Y-80392800D02*
X164107600Y-80392800D01*
X95146600Y-88099000D02*
X154393000Y-88099000D01*
X128727200Y-124002800D02*
X129133600Y-124409200D01*
X164107600Y-80392800D02*
X164084000Y-80416400D01*
X159160000Y-140668800D02*
X144780000Y-126288800D01*
X168631200Y-140668800D02*
X159160000Y-140668800D01*
X144780000Y-126288800D02*
X129133600Y-126288800D01*
%TO.N,Net-(D1-GA)*%
X143814800Y-128219200D02*
X130505200Y-128219200D01*
X157964400Y-142368800D02*
X143814800Y-128219200D01*
X130325600Y-122302800D02*
X130403600Y-122224800D01*
X90918400Y-122302800D02*
X130325600Y-122302800D01*
X168452800Y-82092800D02*
X164490400Y-82092800D01*
X154306800Y-82221600D02*
X159334200Y-87249000D01*
X130505200Y-128219200D02*
X130403600Y-128117600D01*
X90969200Y-82221600D02*
X154306800Y-82221600D01*
X168631200Y-142368800D02*
X157964400Y-142368800D01*
%TO.N,Net-(D1-RA)*%
X130755600Y-120602800D02*
X131673600Y-119684800D01*
X142697200Y-129082800D02*
X131673600Y-129082800D01*
X164717200Y-83792800D02*
X164642800Y-83718400D01*
X90969200Y-80521600D02*
X157432800Y-80521600D01*
X90918400Y-120602800D02*
X130755600Y-120602800D01*
X168631200Y-144068800D02*
X157683200Y-144068800D01*
X157683200Y-144068800D02*
X142697200Y-129082800D01*
X168452800Y-83792800D02*
X164717200Y-83792800D01*
X157432800Y-80521600D02*
X162636200Y-85725000D01*
%TO.N,Net-(D2-BA)*%
X141247600Y-104062000D02*
X143713200Y-106527600D01*
X90918400Y-143967200D02*
X112471200Y-143967200D01*
X125642000Y-144766400D02*
X128270000Y-142138400D01*
X133793600Y-139104000D02*
X133793600Y-133387200D01*
X90906000Y-104062000D02*
X141247600Y-104062000D01*
X133793600Y-133387200D02*
X132994400Y-132588000D01*
X168478800Y-100279200D02*
X165963600Y-100279200D01*
X168503600Y-120524800D02*
X134240800Y-120524800D01*
X134240800Y-120524800D02*
X132943600Y-119227600D01*
X128778000Y-141630400D02*
X131267200Y-141630400D01*
X112471200Y-143967200D02*
X113270400Y-144766400D01*
X131267200Y-141630400D02*
X133793600Y-139104000D01*
X128270000Y-142138400D02*
X128778000Y-141630400D01*
X113270400Y-144766400D02*
X125642000Y-144766400D01*
%TO.N,Net-(D2-GA)*%
X90906000Y-102362000D02*
X145338800Y-102362000D01*
X90918400Y-142267200D02*
X94058000Y-142267200D01*
X134467600Y-122224800D02*
X134213600Y-121970800D01*
X168605200Y-122326400D02*
X168503600Y-122224800D01*
X145338800Y-102362000D02*
X147447000Y-104470200D01*
X168478800Y-101979200D02*
X166088800Y-101979200D01*
X166088800Y-101979200D02*
X166014400Y-101904800D01*
X110933600Y-125438800D02*
X133590400Y-125438800D01*
X94058000Y-142267200D02*
X94081600Y-142290800D01*
X94081600Y-142290800D02*
X110933600Y-125438800D01*
X133590400Y-125438800D02*
X134213600Y-124815600D01*
X168503600Y-122224800D02*
X134467600Y-122224800D01*
%TO.N,Net-(D2-RA)*%
X168478800Y-103679200D02*
X166061600Y-103679200D01*
X135446400Y-127267600D02*
X135483600Y-127304800D01*
X168503600Y-123924800D02*
X135866400Y-123924800D01*
X135866400Y-123924800D02*
X135483600Y-124307600D01*
X90906000Y-100662000D02*
X147093200Y-100662000D01*
X94027200Y-140567200D02*
X94030800Y-140563600D01*
X166061600Y-103679200D02*
X165963600Y-103581200D01*
X147093200Y-100662000D02*
X150012400Y-103581200D01*
X98145600Y-140512800D02*
X111390800Y-127267600D01*
X90918400Y-140567200D02*
X94027200Y-140567200D01*
X111390800Y-127267600D02*
X135446400Y-127267600D01*
%TO.N,Net-(D3-BK)*%
X88341200Y-142138400D02*
X86247200Y-142138400D01*
X86247200Y-142138400D02*
X86118400Y-142267200D01*
X86118400Y-124002800D02*
X86118400Y-122302800D01*
X86118400Y-122302800D02*
X88263200Y-122302800D01*
X86118400Y-122302800D02*
X86118400Y-120602800D01*
X86118400Y-143967200D02*
X86118400Y-142267200D01*
X86118400Y-142267200D02*
X86118400Y-140567200D01*
X88263200Y-122302800D02*
X88290400Y-122275600D01*
D18*
X131673600Y-142849600D02*
X129073495Y-142849600D01*
X125780800Y-146142295D02*
X88293495Y-146142295D01*
X129073495Y-142849600D02*
X125780800Y-146142295D01*
X88293495Y-146142295D02*
X86118400Y-143967200D01*
D19*
%TO.N,Net-(D5-BK)*%
X173252800Y-80392800D02*
X173252800Y-82092800D01*
X173252800Y-82092800D02*
X170789600Y-82092800D01*
X173278800Y-101979200D02*
X171676800Y-101979200D01*
X170688000Y-82092800D02*
X170738800Y-82143600D01*
X170789600Y-82092800D02*
X170738800Y-82143600D01*
X173278800Y-100279200D02*
X173278800Y-101979200D01*
X173278800Y-103679200D02*
X173278800Y-101979200D01*
X173252800Y-82092800D02*
X173252800Y-83792800D01*
X171676800Y-101979200D02*
X170738800Y-101041200D01*
%TO.N,Net-(D7-BK)*%
X173252800Y-122275600D02*
X173303600Y-122224800D01*
X173431200Y-142368800D02*
X171375600Y-142368800D01*
X173303600Y-122224800D02*
X175310800Y-122224800D01*
X171375600Y-142368800D02*
X170992800Y-141986000D01*
X173431200Y-144068800D02*
X173431200Y-142368800D01*
X129032000Y-143916400D02*
X133400800Y-143916400D01*
X173431200Y-142368800D02*
X173431200Y-140668800D01*
X173303600Y-122224800D02*
X173303600Y-120524800D01*
X133400800Y-143916400D02*
X133451600Y-143865600D01*
X173303600Y-123924800D02*
X173303600Y-122224800D01*
D18*
%TO.N,Net-(U2-SCL{slash}D1)*%
X101447600Y-119380000D02*
X102412800Y-119380000D01*
X102412800Y-119380000D02*
X105308400Y-116484400D01*
%TO.N,Net-(U2-SDA{slash}D2)*%
X101244400Y-117500400D02*
X102666800Y-117500400D01*
X100025200Y-118719600D02*
X101244400Y-117500400D01*
%TO.N,Net-(J1-Pin_2)*%
X130302000Y-136093200D02*
X132791200Y-138582400D01*
X106883200Y-138785600D02*
X105257600Y-137160000D01*
X107696000Y-138785600D02*
X106883200Y-138785600D01*
X109728000Y-138785600D02*
X107696000Y-138785600D01*
X89001600Y-113741200D02*
X89103200Y-113639600D01*
X132791200Y-138582400D02*
X132943600Y-138582400D01*
X130302000Y-136093200D02*
X130302000Y-138023600D01*
X130302000Y-136093200D02*
X129408600Y-136093200D01*
X130302000Y-138023600D02*
X129032000Y-139293600D01*
X82854800Y-113741200D02*
X89001600Y-113741200D01*
%TD*%
M02*
