M48
; DRILL file {KiCad 7.0.10-7.0.10~ubuntu22.04.1} date Chủ nhật, 15 Tháng 6 Năm 2025 10:20:44 +07
; FORMAT={-:-/ absolute / metric / decimal}
; #@! TF.CreationDate,2025-06-15T10:20:44+07:00
; #@! TF.GenerationSoftware,Kicad,Pcbnew,7.0.10-7.0.10~ubuntu22.04.1
; #@! TF.FileFunction,Plated,1,2,PTH
FMAT,2
METRIC
; #@! TA.AperFunction,Plated,PTH,ViaDrill
T1C0.400
; #@! TA.AperFunction,Plated,PTH,ComponentDrill
T2C1.000
%
G90
G05
T1
X84.582Y-74.574
X88.29Y-74.524
X88.29Y-82.296
X88.29Y-102.362
X88.29Y-122.276
X88.341Y-142.138
X89.103Y-113.64
X90.678Y-110.439
X94.031Y-140.564
X98.146Y-140.513
X100.025Y-118.72
X101.448Y-119.38
X102.667Y-117.5
X105.258Y-137.16
X105.308Y-116.484
X109.728Y-138.786
X115.57Y-132.232
X119.075Y-136.601
X125.374Y-132.944
X126.136Y-134.874
X126.594Y-136.906
X127.813Y-74.524
X129.032Y-139.294
X129.032Y-143.916
X129.134Y-124.409
X129.134Y-126.289
X130.404Y-122.225
X130.404Y-128.118
X131.521Y-74.625
X131.674Y-119.685
X131.674Y-129.083
X131.674Y-142.85
X131.928Y-134.569
X132.944Y-119.228
X132.944Y-138.582
X132.994Y-132.588
X133.452Y-143.866
X134.214Y-121.971
X134.214Y-124.816
X135.484Y-124.308
X135.484Y-127.305
X143.713Y-106.528
X147.447Y-104.47
X150.012Y-103.581
X155.397Y-89.103
X159.334Y-87.249
X162.636Y-85.725
X164.084Y-80.416
X164.49Y-82.093
X164.643Y-83.718
X165.964Y-100.279
X165.964Y-103.581
X166.014Y-101.905
X170.637Y-74.727
X170.739Y-82.144
X170.739Y-101.041
X170.993Y-141.986
X174.65Y-74.727
X175.311Y-122.225
T2
X82.855Y-111.241
X82.855Y-113.741
M30
