%TF.GenerationSoftware,KiCad,Pcbnew,7.0.10-7.0.10~ubuntu22.04.1*%
%TF.CreationDate,2025-06-15T10:20:51+07:00*%
%TF.ProjectId,servermon,73657276-6572-46d6-9f6e-2e6b69636164,rev?*%
%TF.SameCoordinates,Original*%
%TF.FileFunction,Soldermask,Bot*%
%TF.FilePolarity,Negative*%
%FSLAX46Y46*%
G04 Gerber Fmt 4.6, Leading zero omitted, Abs format (unit mm)*
G04 Created by KiCad (PCBNEW 7.0.10-7.0.10~ubuntu22.04.1) date 2025-06-15 10:20:51*
%MOMM*%
%LPD*%
G01*
G04 APERTURE LIST*
G04 Aperture macros list*
%AMRoundRect*
0 Rectangle with rounded corners*
0 $1 Rounding radius*
0 $2 $3 $4 $5 $6 $7 $8 $9 X,Y pos of 4 corners*
0 Add a 4 corners polygon primitive as box body*
4,1,4,$2,$3,$4,$5,$6,$7,$8,$9,$2,$3,0*
0 Add four circle primitives for the rounded corners*
1,1,$1+$1,$2,$3*
1,1,$1+$1,$4,$5*
1,1,$1+$1,$6,$7*
1,1,$1+$1,$8,$9*
0 Add four rect primitives between the rounded corners*
20,1,$1+$1,$2,$3,$4,$5,0*
20,1,$1+$1,$4,$5,$6,$7,0*
20,1,$1+$1,$6,$7,$8,$9,0*
20,1,$1+$1,$8,$9,$2,$3,0*%
G04 Aperture macros list end*
%ADD10C,3.200000*%
%ADD11R,2.000000X2.000000*%
%ADD12O,1.600000X2.000000*%
%ADD13RoundRect,0.250000X0.925000X-0.412500X0.925000X0.412500X-0.925000X0.412500X-0.925000X-0.412500X0*%
%ADD14RoundRect,0.135000X-0.135000X-0.185000X0.135000X-0.185000X0.135000X0.185000X-0.135000X0.185000X0*%
%ADD15RoundRect,0.135000X0.135000X0.185000X-0.135000X0.185000X-0.135000X-0.185000X0.135000X-0.185000X0*%
%ADD16RoundRect,0.150000X-0.150000X0.650000X-0.150000X-0.650000X0.150000X-0.650000X0.150000X0.650000X0*%
%ADD17C,2.000000*%
%ADD18RoundRect,0.250000X-0.750000X0.600000X-0.750000X-0.600000X0.750000X-0.600000X0.750000X0.600000X0*%
%ADD19O,2.000000X1.700000*%
G04 APERTURE END LIST*
D10*
%TO.C,H1*%
X174244000Y-65989200D03*
%TD*%
%TO.C,H2*%
X85344000Y-154178000D03*
%TD*%
%TO.C,H3*%
X173329600Y-155194000D03*
%TD*%
%TO.C,H4*%
X85344000Y-65989200D03*
%TD*%
D11*
%TO.C,U2*%
X105918000Y-148082000D03*
D12*
X103378000Y-148082000D03*
X100838000Y-148082000D03*
X98298000Y-148082000D03*
X95758000Y-148082000D03*
X93218000Y-148082000D03*
X90678000Y-148082000D03*
X88138000Y-148082000D03*
X88138000Y-125222000D03*
X90678000Y-125222000D03*
X93218000Y-125222000D03*
X95758000Y-125222000D03*
X98298000Y-125222000D03*
X100838000Y-125222000D03*
X103378000Y-125222000D03*
X105918000Y-125222000D03*
%TD*%
D13*
%TO.C,C2*%
X138785600Y-137630700D03*
X138785600Y-134555700D03*
%TD*%
D14*
%TO.C,R3*%
X132840000Y-74625200D03*
X133860000Y-74625200D03*
%TD*%
D15*
%TO.C,R5*%
X83669600Y-74574400D03*
X82649600Y-74574400D03*
%TD*%
D16*
%TO.C,U1*%
X118973600Y-130606800D03*
X120243600Y-130606800D03*
X121513600Y-130606800D03*
X122783600Y-130606800D03*
X124053600Y-130606800D03*
X125323600Y-130606800D03*
X126593600Y-130606800D03*
X127863600Y-130606800D03*
X129133600Y-130606800D03*
X130403600Y-130606800D03*
X131673600Y-130606800D03*
X132943600Y-130606800D03*
X134213600Y-130606800D03*
X135483600Y-130606800D03*
X135483600Y-141056800D03*
X134213600Y-141056800D03*
X132943600Y-141056800D03*
X131673600Y-141056800D03*
X130403600Y-141056800D03*
X129133600Y-141056800D03*
X127863600Y-141056800D03*
X126593600Y-141056800D03*
X125323600Y-141056800D03*
X124053600Y-141056800D03*
X122783600Y-141056800D03*
X121513600Y-141056800D03*
X120243600Y-141056800D03*
X118973600Y-141056800D03*
%TD*%
D14*
%TO.C,R4*%
X175461200Y-74726800D03*
X176481200Y-74726800D03*
%TD*%
D17*
%TO.C,TP2*%
X102412800Y-121970800D03*
%TD*%
D18*
%TO.C,J1*%
X82854800Y-111241200D03*
D19*
X82854800Y-113741200D03*
%TD*%
D17*
%TO.C,TP3*%
X105765600Y-121767600D03*
%TD*%
M02*
