%TF.GenerationSoftware,KiCad,Pcbnew,7.0.10-7.0.10~ubuntu22.04.1*%
%TF.CreationDate,2025-06-15T10:20:51+07:00*%
%TF.ProjectId,servermon,73657276-6572-46d6-9f6e-2e6b69636164,rev?*%
%TF.SameCoordinates,Original*%
%TF.FileFunction,Legend,Bot*%
%TF.FilePolarity,Positive*%
%FSLAX46Y46*%
G04 Gerber Fmt 4.6, Leading zero omitted, Abs format (unit mm)*
G04 Created by KiCad (PCBNEW 7.0.10-7.0.10~ubuntu22.04.1) date 2025-06-15 10:20:51*
%MOMM*%
%LPD*%
G01*
G04 APERTURE LIST*
%ADD10C,0.150000*%
%ADD11C,0.120000*%
%ADD12C,0.500000*%
G04 APERTURE END LIST*
D10*
X141495180Y-135926533D02*
X141542800Y-135878914D01*
X141542800Y-135878914D02*
X141590419Y-135736057D01*
X141590419Y-135736057D02*
X141590419Y-135640819D01*
X141590419Y-135640819D02*
X141542800Y-135497962D01*
X141542800Y-135497962D02*
X141447561Y-135402724D01*
X141447561Y-135402724D02*
X141352323Y-135355105D01*
X141352323Y-135355105D02*
X141161847Y-135307486D01*
X141161847Y-135307486D02*
X141018990Y-135307486D01*
X141018990Y-135307486D02*
X140828514Y-135355105D01*
X140828514Y-135355105D02*
X140733276Y-135402724D01*
X140733276Y-135402724D02*
X140638038Y-135497962D01*
X140638038Y-135497962D02*
X140590419Y-135640819D01*
X140590419Y-135640819D02*
X140590419Y-135736057D01*
X140590419Y-135736057D02*
X140638038Y-135878914D01*
X140638038Y-135878914D02*
X140685657Y-135926533D01*
X140685657Y-136307486D02*
X140638038Y-136355105D01*
X140638038Y-136355105D02*
X140590419Y-136450343D01*
X140590419Y-136450343D02*
X140590419Y-136688438D01*
X140590419Y-136688438D02*
X140638038Y-136783676D01*
X140638038Y-136783676D02*
X140685657Y-136831295D01*
X140685657Y-136831295D02*
X140780895Y-136878914D01*
X140780895Y-136878914D02*
X140876133Y-136878914D01*
X140876133Y-136878914D02*
X141018990Y-136831295D01*
X141018990Y-136831295D02*
X141590419Y-136259867D01*
X141590419Y-136259867D02*
X141590419Y-136878914D01*
X133516666Y-76250019D02*
X133849999Y-75773828D01*
X134088094Y-76250019D02*
X134088094Y-75250019D01*
X134088094Y-75250019D02*
X133707142Y-75250019D01*
X133707142Y-75250019D02*
X133611904Y-75297638D01*
X133611904Y-75297638D02*
X133564285Y-75345257D01*
X133564285Y-75345257D02*
X133516666Y-75440495D01*
X133516666Y-75440495D02*
X133516666Y-75583352D01*
X133516666Y-75583352D02*
X133564285Y-75678590D01*
X133564285Y-75678590D02*
X133611904Y-75726209D01*
X133611904Y-75726209D02*
X133707142Y-75773828D01*
X133707142Y-75773828D02*
X134088094Y-75773828D01*
X133183332Y-75250019D02*
X132564285Y-75250019D01*
X132564285Y-75250019D02*
X132897618Y-75630971D01*
X132897618Y-75630971D02*
X132754761Y-75630971D01*
X132754761Y-75630971D02*
X132659523Y-75678590D01*
X132659523Y-75678590D02*
X132611904Y-75726209D01*
X132611904Y-75726209D02*
X132564285Y-75821447D01*
X132564285Y-75821447D02*
X132564285Y-76059542D01*
X132564285Y-76059542D02*
X132611904Y-76154780D01*
X132611904Y-76154780D02*
X132659523Y-76202400D01*
X132659523Y-76202400D02*
X132754761Y-76250019D01*
X132754761Y-76250019D02*
X133040475Y-76250019D01*
X133040475Y-76250019D02*
X133135713Y-76202400D01*
X133135713Y-76202400D02*
X133183332Y-76154780D01*
X83326266Y-73859219D02*
X83659599Y-73383028D01*
X83897694Y-73859219D02*
X83897694Y-72859219D01*
X83897694Y-72859219D02*
X83516742Y-72859219D01*
X83516742Y-72859219D02*
X83421504Y-72906838D01*
X83421504Y-72906838D02*
X83373885Y-72954457D01*
X83373885Y-72954457D02*
X83326266Y-73049695D01*
X83326266Y-73049695D02*
X83326266Y-73192552D01*
X83326266Y-73192552D02*
X83373885Y-73287790D01*
X83373885Y-73287790D02*
X83421504Y-73335409D01*
X83421504Y-73335409D02*
X83516742Y-73383028D01*
X83516742Y-73383028D02*
X83897694Y-73383028D01*
X82421504Y-72859219D02*
X82897694Y-72859219D01*
X82897694Y-72859219D02*
X82945313Y-73335409D01*
X82945313Y-73335409D02*
X82897694Y-73287790D01*
X82897694Y-73287790D02*
X82802456Y-73240171D01*
X82802456Y-73240171D02*
X82564361Y-73240171D01*
X82564361Y-73240171D02*
X82469123Y-73287790D01*
X82469123Y-73287790D02*
X82421504Y-73335409D01*
X82421504Y-73335409D02*
X82373885Y-73430647D01*
X82373885Y-73430647D02*
X82373885Y-73668742D01*
X82373885Y-73668742D02*
X82421504Y-73763980D01*
X82421504Y-73763980D02*
X82469123Y-73811600D01*
X82469123Y-73811600D02*
X82564361Y-73859219D01*
X82564361Y-73859219D02*
X82802456Y-73859219D01*
X82802456Y-73859219D02*
X82897694Y-73811600D01*
X82897694Y-73811600D02*
X82945313Y-73763980D01*
X176137866Y-76351619D02*
X176471199Y-75875428D01*
X176709294Y-76351619D02*
X176709294Y-75351619D01*
X176709294Y-75351619D02*
X176328342Y-75351619D01*
X176328342Y-75351619D02*
X176233104Y-75399238D01*
X176233104Y-75399238D02*
X176185485Y-75446857D01*
X176185485Y-75446857D02*
X176137866Y-75542095D01*
X176137866Y-75542095D02*
X176137866Y-75684952D01*
X176137866Y-75684952D02*
X176185485Y-75780190D01*
X176185485Y-75780190D02*
X176233104Y-75827809D01*
X176233104Y-75827809D02*
X176328342Y-75875428D01*
X176328342Y-75875428D02*
X176709294Y-75875428D01*
X175280723Y-75684952D02*
X175280723Y-76351619D01*
X175518818Y-75304000D02*
X175756913Y-76018285D01*
X175756913Y-76018285D02*
X175137866Y-76018285D01*
D11*
%TO.C,U2*%
X86698000Y-149582000D02*
X112128000Y-149582000D01*
X86698000Y-149582000D02*
X86698000Y-147042000D01*
X79798000Y-147042000D02*
X79798000Y-123722000D01*
X86698000Y-147042000D02*
X79798000Y-147042000D01*
X114258000Y-125842000D02*
X114258000Y-147452000D01*
X79798000Y-123722000D02*
X112128000Y-123722000D01*
X112128000Y-149582000D02*
G75*
G03*
X114258000Y-147452000I-2J2130002D01*
G01*
X114258000Y-125852000D02*
G75*
G03*
X112128000Y-123722000I-2130000J0D01*
G01*
D10*
X106553000Y-150622000D02*
X105283000Y-150622000D01*
X105918000Y-149987000D01*
X106553000Y-150622000D01*
G36*
X106553000Y-150622000D02*
G01*
X105283000Y-150622000D01*
X105918000Y-149987000D01*
X106553000Y-150622000D01*
G37*
D11*
%TO.C,C2*%
X137275600Y-138553200D02*
X137275600Y-134343200D01*
X140295600Y-138553200D02*
X137275600Y-138553200D01*
X140295600Y-134343200D02*
X140295600Y-138553200D01*
%TO.C,R3*%
X133196359Y-74245200D02*
X133503641Y-74245200D01*
X133196359Y-75005200D02*
X133503641Y-75005200D01*
%TO.C,R5*%
X83313241Y-74954400D02*
X83005959Y-74954400D01*
X83313241Y-74194400D02*
X83005959Y-74194400D01*
D12*
%TO.C,U1*%
X119173600Y-128606800D02*
G75*
G03*
X118773600Y-128606800I-200000J0D01*
G01*
X118773600Y-128606800D02*
G75*
G03*
X119173600Y-128606800I200000J0D01*
G01*
D11*
%TO.C,R4*%
X175817559Y-74346800D02*
X176124841Y-74346800D01*
X175817559Y-75106800D02*
X176124841Y-75106800D01*
%TO.C,TP2*%
X103612800Y-121970800D02*
G75*
G03*
X101212800Y-121970800I-1200000J0D01*
G01*
X101212800Y-121970800D02*
G75*
G03*
X103612800Y-121970800I1200000J0D01*
G01*
%TO.C,J1*%
X85464800Y-108331200D02*
X85464800Y-110831200D01*
X82964800Y-108331200D02*
X85464800Y-108331200D01*
X85164800Y-108631200D02*
X85164800Y-116351200D01*
X83664800Y-108631200D02*
X83664800Y-109631200D01*
X82854800Y-108631200D02*
X82854800Y-109131200D01*
X81144800Y-108631200D02*
X85164800Y-108631200D01*
X82854800Y-109131200D02*
X81644800Y-109131200D01*
X81644800Y-109131200D02*
X81644800Y-115851200D01*
X83664800Y-109631200D02*
X85164800Y-109631200D01*
X83664800Y-115351200D02*
X85164800Y-115351200D01*
X82854800Y-115851200D02*
X82854800Y-116351200D01*
X81644800Y-115851200D02*
X82854800Y-115851200D01*
X85164800Y-116351200D02*
X81144800Y-116351200D01*
X83664800Y-116351200D02*
X83664800Y-115351200D01*
X81144800Y-116351200D02*
X81144800Y-108631200D01*
%TO.C,TP3*%
X106965600Y-121767600D02*
G75*
G03*
X104565600Y-121767600I-1200000J0D01*
G01*
X104565600Y-121767600D02*
G75*
G03*
X106965600Y-121767600I1200000J0D01*
G01*
%TD*%
M02*
